# Blender v2.81 (sub 16) OBJ File: 'drone_props.blend'
# www.blender.org
o Blade2_Circle.004_Blade2_Circle.014
v 0.111097 0.002938 -0.360027
v 0.117623 0.004616 -0.363265
v 0.131434 0.009487 -0.353460
v 0.131274 0.010027 -0.353503
v 0.127831 0.008494 -0.359960
v 0.117464 0.005155 -0.363308
v 0.128664 0.013311 -0.294905
v 0.060923 0.011088 -0.077259
v 0.061084 0.010546 -0.077216
v 0.000846 -0.003513 -0.029365
v -0.002581 -0.004237 -0.033095
v -0.002421 -0.004774 -0.033052
v -0.004117 -0.006994 -0.054702
v 0.008803 -0.005701 -0.094089
v 0.008962 -0.006238 -0.094047
v 0.130714 0.013281 -0.310407
v 0.128504 0.013852 -0.294948
v 0.005017 -0.002054 -0.026552
v 0.000686 -0.002975 -0.029408
v 0.130874 0.012740 -0.310364
v 0.130413 0.012358 -0.320914
v 0.009826 -0.000457 -0.024391
v 0.004857 -0.001516 -0.026595
v 0.130573 0.011817 -0.320871
v 0.131506 0.011302 -0.338310
v 0.014977 0.001211 -0.022615
v 0.009666 0.000082 -0.024434
v 0.131667 0.010761 -0.338267
v 0.020194 0.002881 -0.021043
v 0.014817 0.001750 -0.022658
v 0.025354 0.004495 -0.019985
v 0.020034 0.003421 -0.021086
v 0.127991 0.007955 -0.359917
v 0.123369 0.006859 -0.363901
v 0.030370 0.005994 -0.019831
v 0.025193 0.005035 -0.020028
v 0.123528 0.006319 -0.363858
v 0.035156 0.007326 -0.020918
v 0.030210 0.006535 -0.019874
v 0.110937 0.003477 -0.360070
v 0.039633 0.008446 -0.023536
v 0.034996 0.007868 -0.020960
v 0.101983 0.001792 -0.347844
v 0.043616 0.009308 -0.027545
v 0.039472 0.008987 -0.023579
v -0.005333 -0.006911 -0.049108
v -0.004276 -0.006457 -0.054744
v 0.102142 0.001254 -0.347802
v 0.092836 0.000254 -0.333048
v 0.046628 0.010415 -0.032320
v 0.043455 0.009850 -0.027588
v -0.005482 -0.006502 -0.043400
v -0.005492 -0.006374 -0.049151
v 0.086687 -0.001489 -0.324631
v 0.092995 -0.000284 -0.333005
v 0.046789 0.009873 -0.032277
v 0.048866 0.010661 -0.037584
v -0.004554 -0.005783 -0.037805
v -0.005641 -0.005965 -0.043442
v 0.079407 -0.001963 -0.310801
v 0.086528 -0.000952 -0.324674
v 0.049026 0.010119 -0.037541
v -0.004713 -0.005246 -0.037847
v 0.079567 -0.002500 -0.310759
vn 0.2834 -0.9560 0.0758
vn -0.2834 0.9560 -0.0759
vn -0.2834 0.9560 -0.0758
vn 0.9121 0.2929 0.2869
vn 0.9130 0.2931 0.2839
vn 0.9129 0.2932 0.2839
vn -0.7120 -0.1566 0.6845
vn -0.7120 -0.1565 0.6845
vn -0.7120 -0.1564 0.6845
vn -0.9057 -0.2927 -0.3067
vn -0.9067 -0.2928 -0.3037
vn -0.9068 -0.2923 -0.3038
vn 0.9485 0.2911 0.1248
vn 0.9485 0.2910 0.1248
vn -0.5345 -0.0918 0.8402
vn -0.5347 -0.0914 0.8401
vn 0.9586 0.2800 -0.0520
vn 0.9586 0.2799 -0.0521
vn 0.9586 0.2799 -0.0520
vn -0.3971 -0.0448 0.9167
vn 0.9570 0.2870 0.0427
vn 0.9569 0.2871 0.0427
vn 0.9570 0.2871 0.0427
vn -0.3203 -0.0195 0.9471
vn -0.3202 -0.0201 0.9471
vn -0.3202 -0.0200 0.9471
vn 0.9588 0.2813 -0.0383
vn 0.9589 0.2811 -0.0383
vn 0.9589 0.2812 -0.0383
vn -0.2860 -0.0085 0.9582
vn -0.2859 -0.0087 0.9582
vn 0.8412 0.2101 -0.4983
vn 0.8412 0.2099 -0.4983
vn 0.8413 0.2096 -0.4983
vn -0.2059 0.0166 0.9784
vn -0.2059 0.0169 0.9784
vn -0.2059 0.0165 0.9784
vn 0.6303 0.1262 -0.7660
vn 0.6303 0.1258 -0.7661
vn 0.6304 0.1260 -0.7660
vn -0.0494 0.0643 0.9967
vn -0.0497 0.0638 0.9967
vn -0.0497 0.0639 0.9967
vn -0.0711 -0.0995 -0.9925
vn -0.0709 -0.0997 -0.9925
vn -0.0709 -0.0999 -0.9925
vn 0.1844 0.1320 0.9740
vn 0.1845 0.1318 0.9740
vn 0.1845 0.1319 0.9739
vn -0.3970 -0.1888 -0.8982
vn 0.4558 0.2039 0.8664
vn 0.4558 0.2037 0.8665
vn -0.7582 -0.2718 -0.5927
vn -0.7581 -0.2718 -0.5928
vn -0.7582 -0.2717 -0.5927
vn 0.6590 0.2515 0.7088
vn 0.6590 0.2516 0.7088
vn -0.9352 -0.2928 -0.1990
vn -0.9352 -0.2930 -0.1990
vn -0.8033 -0.2798 -0.5257
vn -0.8034 -0.2795 -0.5257
vn 0.7827 0.2764 0.5577
vn 0.7827 0.2763 0.5578
vn 0.7827 0.2762 0.5577
vn -0.9587 -0.2843 -0.0047
vn -0.9586 -0.2846 -0.0046
vn -0.7499 -0.2704 -0.6038
vn -0.7500 -0.2700 -0.6038
vn 0.8758 0.2902 0.3858
vn 0.8758 0.2901 0.3858
vn -0.9452 -0.2650 0.1908
vn -0.8438 -0.2862 -0.4540
vn 0.9139 0.2932 0.2809
vn 0.9139 0.2931 0.2809
vn -0.8708 -0.2233 0.4380
vn -0.8706 -0.2236 0.4382
vn -0.8708 -0.2231 0.4381
vn -0.9077 -0.2928 -0.3007
vn -0.9076 -0.2929 -0.3007
vn 0.2832 -0.9560 0.0759
vn 0.2836 -0.9560 0.0757
vn 0.2833 -0.9560 0.0759
vn 0.2834 -0.9560 0.0760
vn 0.2833 -0.9560 0.0757
vn 0.2833 -0.9560 0.0758
vn 0.2834 -0.9560 0.0757
vn 0.2834 -0.9560 0.0759
vn 0.2833 -0.9560 0.0760
vn -0.2835 0.9560 -0.0758
vn -0.2835 0.9560 -0.0759
vn -0.2835 0.9560 -0.0760
vn -0.2835 0.9560 -0.0756
vn -0.2835 0.9559 -0.0761
vn 0.9122 0.2926 0.2869
vn -0.7120 -0.1567 0.6845
vn 0.9569 0.2872 0.0427
vn -0.3202 -0.0191 0.9472
vn 0.9589 0.2810 -0.0383
vn -0.2058 0.0166 0.9784
vn -0.0495 0.0644 0.9967
vn -0.0708 -0.1001 -0.9925
vn 0.1844 0.1319 0.9740
vn -0.3970 -0.1886 -0.8982
vn 0.4558 0.2040 0.8664
vn -0.8033 -0.2800 -0.5257
vn -0.9586 -0.2846 -0.0045
vn 0.8757 0.2903 0.3858
s 1
f 1//1 2//1 3//1
f 4//2 5//3 6//3
f 7//4 8//5 9//6
f 10//7 11//8 12//9
f 13//10 14//11 15//12
f 7//13 16//14 17//13
f 18//15 19//15 10//16
f 20//17 21//18 16//19
f 22//20 23//20 18//20
f 24//21 25//22 21//23
f 26//24 27//25 22//26
f 28//27 4//28 25//29
f 29//30 30//31 26//31
f 3//32 5//33 4//34
f 31//35 32//36 29//37
f 33//38 34//39 5//40
f 35//41 36//42 31//43
f 37//44 6//45 34//46
f 38//47 39//48 35//49
f 2//50 40//50 6//50
f 41//51 42//52 38//52
f 1//53 43//54 40//55
f 44//56 45//57 41//56
f 46//58 47//59 13//59
f 48//60 49//61 43//60
f 44//62 50//63 51//64
f 52//65 53//66 46//66
f 54//67 49//68 55//68
f 56//69 57//69 50//70
f 58//71 59//71 52//71
f 54//72 60//72 61//72
f 9//6 57//73 62//74
f 12//75 63//76 58//77
f 64//78 14//11 60//79
f 52//80 46//1 18//1
f 46//1 13//1 22//1
f 15//1 64//1 9//1
f 64//1 54//1 7//1
f 9//1 64//1 7//1
f 46//1 22//1 18//1
f 13//1 15//1 9//1
f 12//81 58//82 10//80
f 58//82 52//80 18//1
f 18//1 10//80 58//82
f 26//1 22//1 13//1
f 31//83 29//84 56//85
f 29//84 26//1 62//1
f 38//82 35//86 41//83
f 35//86 31//83 41//83
f 44//87 41//83 31//83
f 62//1 56//85 29//84
f 56//85 44//87 31//83
f 20//1 7//1 54//1
f 20//1 54//1 55//1
f 9//1 62//1 13//1
f 55//1 48//1 24//1
f 48//1 1//1 28//85
f 24//1 48//1 28//85
f 62//1 26//1 13//1
f 24//1 20//1 55//1
f 3//1 28//85 1//1
f 37//88 33//86 2//1
f 33//86 3//1 2//1
f 47//89 53//89 27//2
f 53//89 59//2 23//89
f 59//2 63//3 23//89
f 63//3 11//89 19//90
f 23//89 63//3 19//90
f 23//89 27//2 53//89
f 27//2 30//3 47//89
f 30//3 32//3 57//3
f 32//3 36//91 50//90
f 50//90 36//91 51//92
f 36//91 39//91 45//3
f 39//91 42//93 45//3
f 45//3 51//92 36//91
f 50//90 57//3 32//3
f 8//2 17//3 14//2
f 17//3 16//3 60//3
f 14//2 17//3 60//3
f 57//3 8//2 14//2
f 14//2 47//89 57//3
f 61//3 60//3 16//3
f 61//3 16//3 21//3
f 40//2 43//3 25//2
f 43//3 49//3 21//3
f 49//3 61//3 21//3
f 47//89 30//3 57//3
f 21//3 25//2 43//3
f 25//2 4//2 40//2
f 34//91 6//3 5//3
f 6//3 40//2 4//2
f 7//4 17//94 8//5
f 10//7 19//95 11//8
f 13//10 47//10 14//11
f 7//13 20//13 16//14
f 18//15 23//15 19//15
f 20//17 24//18 21//18
f 22//20 27//20 23//20
f 24//21 28//96 25//22
f 26//24 30//97 27//25
f 28//27 3//98 4//28
f 29//30 32//30 30//31
f 3//32 33//34 5//33
f 31//35 36//99 32//36
f 33//38 37//39 34//39
f 35//41 39//100 36//42
f 37//44 2//101 6//45
f 38//47 42//102 39//48
f 2//50 1//103 40//50
f 41//51 45//104 42//52
f 1//53 48//54 43//54
f 44//56 51//57 45//57
f 46//58 53//58 47//59
f 48//60 55//105 49//61
f 44//62 56//63 50//63
f 52//65 59//106 53//66
f 54//67 61//67 49//68
f 56//69 62//107 57//69
f 58//71 63//71 59//71
f 54//72 64//72 60//72
f 9//6 8//5 57//73
f 12//75 11//75 63//76
f 64//78 15//12 14//11
o Blade2_Circle.005_Blade2_Circle.015
v -0.101873 0.003359 0.369652
v -0.108392 0.005036 0.372904
v -0.122224 0.009908 0.363129
v -0.122064 0.010448 0.363172
v -0.118607 0.008915 0.369621
v -0.108232 0.005575 0.372948
v -0.119582 0.013731 0.304568
v -0.052317 0.011508 0.086776
v -0.052477 0.010966 0.086733
v 0.007656 -0.003093 0.038752
v 0.011091 -0.003816 0.042474
v 0.010932 -0.004354 0.042431
v 0.012674 -0.006574 0.064077
v -0.000159 -0.005281 0.103492
v -0.000319 -0.005818 0.103450
v -0.121598 0.013702 0.320074
v -0.119422 0.014273 0.304610
v 0.003479 -0.001634 0.035947
v 0.007816 -0.002555 0.038794
v -0.121758 0.013160 0.320031
v -0.121274 0.012778 0.330581
v -0.001335 -0.000037 0.033797
v 0.003639 -0.001095 0.035990
v -0.121434 0.012237 0.330540
v -0.122330 0.011722 0.347980
v -0.006490 0.001631 0.032032
v -0.001175 0.000502 0.033839
v -0.122490 0.011182 0.347938
v -0.011710 0.003302 0.030472
v -0.006330 0.002170 0.032075
v -0.016872 0.004915 0.029424
v -0.011550 0.003842 0.030514
v -0.118767 0.008375 0.369579
v -0.114136 0.007279 0.373553
v -0.021889 0.006414 0.029282
v -0.016712 0.005456 0.029467
v -0.114296 0.006740 0.373511
v -0.026673 0.007747 0.030379
v -0.021729 0.006955 0.029324
v -0.101713 0.003897 0.369695
v -0.031144 0.008866 0.033007
v -0.026512 0.008288 0.030421
v -0.092785 0.002212 0.357449
v -0.035118 0.009729 0.037024
v -0.030983 0.009408 0.033049
v 0.013878 -0.006490 0.058481
v 0.012833 -0.006037 0.064119
v -0.092945 0.001674 0.357408
v -0.083670 0.000674 0.342633
v -0.038119 0.010836 0.041806
v -0.034957 0.010270 0.037067
v 0.014014 -0.006082 0.052772
v 0.014038 -0.005954 0.058523
v -0.077540 -0.001069 0.334204
v -0.083830 0.000137 0.342591
v -0.038280 0.010294 0.041763
v -0.040345 0.011081 0.047075
v 0.013074 -0.005363 0.047179
v 0.014174 -0.005545 0.052814
v -0.070291 -0.001542 0.320358
v -0.077381 -0.000532 0.334246
v -0.040506 0.010539 0.047032
v 0.013234 -0.004826 0.047221
v -0.070450 -0.002079 0.320316
vn -0.2835 -0.9560 -0.0752
vn -0.2835 -0.9560 -0.0753
vn 0.2836 0.9560 0.0752
vn -0.9127 0.2929 -0.2849
vn -0.9136 0.2930 -0.2819
vn 0.7104 -0.1567 -0.6861
vn 0.7105 -0.1569 -0.6860
vn 0.9063 -0.2928 0.3047
vn 0.9073 -0.2930 0.3017
vn -0.9488 0.2909 -0.1228
vn -0.9488 0.2911 -0.1228
vn 0.5328 -0.0916 -0.8413
vn 0.5326 -0.0926 -0.8413
vn 0.5326 -0.0923 -0.8413
vn -0.9585 0.2800 0.0541
vn -0.9585 0.2799 0.0542
vn 0.3950 -0.0451 -0.9176
vn 0.3950 -0.0449 -0.9176
vn 0.3949 -0.0451 -0.9176
vn -0.9571 0.2869 -0.0407
vn 0.3181 -0.0197 -0.9478
vn 0.3181 -0.0198 -0.9479
vn -0.9588 0.2813 0.0404
vn -0.9587 0.2814 0.0405
vn 0.2839 -0.0086 -0.9588
vn 0.2838 -0.0088 -0.9588
vn 0.2838 -0.0089 -0.9588
vn -0.8400 0.2104 0.5001
vn -0.8401 0.2100 0.5002
vn -0.8400 0.2105 0.5001
vn 0.2038 0.0167 -0.9789
vn 0.2038 0.0163 -0.9789
vn 0.2038 0.0165 -0.9789
vn -0.6286 0.1260 0.7674
vn -0.6287 0.1259 0.7674
vn -0.6286 0.1261 0.7674
vn 0.0476 0.0645 -0.9968
vn 0.0476 0.0643 -0.9968
vn 0.0731 -0.0996 0.9923
vn 0.0730 -0.1001 0.9923
vn -0.1865 0.1318 -0.9736
vn -0.1865 0.1317 -0.9736
vn 0.3989 -0.1887 0.8974
vn 0.3990 -0.1889 0.8973
vn 0.3989 -0.1888 0.8973
vn -0.4577 0.2037 -0.8654
vn -0.4578 0.2034 -0.8655
vn -0.4578 0.2035 -0.8655
vn 0.7595 -0.2716 0.5911
vn 0.7594 -0.2719 0.5911
vn 0.7595 -0.2717 0.5911
vn -0.6606 0.2515 -0.7074
vn -0.6605 0.2516 -0.7074
vn -0.6605 0.2517 -0.7074
vn 0.9356 -0.2930 0.1969
vn 0.9356 -0.2930 0.1970
vn 0.9356 -0.2929 0.1970
vn 0.8044 -0.2801 0.5239
vn 0.8045 -0.2799 0.5239
vn -0.7840 0.2759 -0.5560
vn -0.7839 0.2765 -0.5560
vn -0.7840 0.2759 -0.5561
vn 0.9587 -0.2845 0.0025
vn 0.9587 -0.2844 0.0025
vn 0.7515 -0.2696 0.6022
vn 0.7510 -0.2708 0.6021
vn 0.7512 -0.2704 0.6021
vn -0.8766 0.2902 -0.3838
vn -0.8766 0.2902 -0.3839
vn 0.9448 -0.2649 -0.1929
vn 0.9448 -0.2649 -0.1928
vn 0.8448 -0.2861 0.4521
vn 0.8449 -0.2859 0.4521
vn 0.8448 -0.2862 0.4521
vn -0.9145 0.2932 -0.2789
vn -0.9145 0.2930 -0.2789
vn 0.8698 -0.2232 -0.4400
vn 0.8698 -0.2233 -0.4400
vn 0.8698 -0.2234 -0.4400
vn 0.9084 -0.2924 0.2988
vn 0.9083 -0.2927 0.2988
vn -0.2834 -0.9560 -0.0753
vn -0.2836 -0.9560 -0.0752
vn -0.2837 -0.9560 -0.0751
vn -0.2836 -0.9560 -0.0756
vn -0.2834 -0.9561 -0.0751
vn -0.2835 -0.9560 -0.0750
vn -0.2835 -0.9560 -0.0751
vn -0.2834 -0.9560 -0.0754
vn 0.2836 0.9560 0.0753
vn 0.2837 0.9560 0.0752
vn 0.2837 0.9560 0.0751
vn 0.2837 0.9560 0.0753
vn 0.2837 0.9560 0.0754
vn 0.7105 -0.1564 -0.6861
vn 0.9064 -0.2926 0.3047
vn -0.9487 0.2912 -0.1228
vn -0.9585 0.2798 0.0542
vn 0.3950 -0.0452 -0.9176
vn 0.3182 -0.0196 -0.9478
vn -0.9589 0.2809 0.0403
vn 0.2838 -0.0087 -0.9588
vn -0.8401 0.2097 0.5002
vn -0.6287 0.1258 0.7674
vn 0.3990 -0.1890 0.8973
vn -0.4578 0.2036 -0.8655
vn 0.8045 -0.2798 0.5239
vn -0.7838 0.2766 -0.5560
vn 0.7513 -0.2700 0.6022
s 1
f 65//108 66//109 67//108
f 68//110 69//110 70//110
f 71//111 72//112 73//112
f 74//113 75//114 76//114
f 77//115 78//116 79//116
f 71//117 80//118 81//117
f 82//119 83//120 74//121
f 84//122 85//123 80//122
f 86//124 87//125 82//126
f 88//127 89//127 85//127
f 90//128 91//129 86//129
f 92//130 68//130 89//131
f 93//132 94//133 90//134
f 67//135 69//136 68//137
f 95//138 96//139 93//140
f 97//141 98//142 69//143
f 99//144 100//145 95//145
f 101//146 70//147 98//146
f 102//148 103//148 99//149
f 66//150 104//151 70//152
f 105//153 106//154 102//155
f 65//156 107//157 104//158
f 108//159 109//160 105//161
f 110//162 111//163 77//164
f 112//165 113//166 107//165
f 108//167 114//168 115//169
f 116//170 117//171 110//171
f 118//172 113//173 119//174
f 120//175 121//176 114//175
f 122//177 123//178 116//178
f 118//179 124//180 125//181
f 73//112 121//182 126//183
f 76//184 127//185 122//186
f 128//187 78//116 124//188
f 116//189 110//189 82//190
f 110//189 77//108 86//190
f 79//108 128//108 73//108
f 128//108 118//108 71//108
f 73//108 128//108 71//108
f 110//189 86//190 82//190
f 77//108 79//108 73//108
f 76//189 122//189 74//191
f 122//189 116//189 82//190
f 82//190 74//191 122//189
f 90//108 86//190 77//108
f 95//192 93//108 120//193
f 93//108 90//108 126//108
f 102//194 99//195 105//195
f 99//195 95//192 105//195
f 108//190 105//195 95//192
f 126//108 120//193 93//108
f 120//193 108//190 95//192
f 84//108 71//108 118//108
f 84//108 118//108 119//108
f 73//108 126//108 77//108
f 119//108 112//108 88//108
f 112//108 65//108 92//190
f 88//108 112//108 92//190
f 126//108 90//108 77//108
f 88//108 84//108 119//108
f 67//108 92//190 65//108
f 101//196 97//190 66//109
f 97//190 67//108 66//109
f 111//110 117//197 91//197
f 117//197 123//198 87//199
f 123//198 127//198 87//199
f 127//198 75//110 83//197
f 87//199 127//198 83//197
f 87//199 91//197 117//197
f 91//197 94//197 111//110
f 94//197 96//200 121//197
f 96//200 100//110 114//200
f 114//200 100//110 115//200
f 100//110 103//110 109//201
f 103//110 106//198 109//201
f 109//201 115//200 100//110
f 114//200 121//197 96//200
f 72//110 81//110 78//110
f 81//110 80//197 124//110
f 78//110 81//110 124//110
f 121//197 72//110 78//110
f 78//110 111//110 121//197
f 125//110 124//110 80//197
f 125//110 80//197 85//197
f 104//110 107//110 89//110
f 107//110 113//110 85//197
f 113//110 125//110 85//197
f 111//110 94//197 121//197
f 85//197 89//110 107//110
f 89//110 68//110 104//110
f 98//197 70//110 69//110
f 70//110 104//110 68//110
f 71//111 81//111 72//112
f 74//113 83//202 75//114
f 77//115 111//203 78//116
f 71//117 84//204 80//118
f 82//119 87//119 83//120
f 84//122 88//205 85//123
f 86//124 91//206 87//125
f 88//127 92//127 89//127
f 90//128 94//207 91//129
f 92//130 67//208 68//130
f 93//132 96//209 94//133
f 67//135 97//210 69//136
f 95//138 100//138 96//139
f 97//141 101//211 98//142
f 99//144 103//144 100//145
f 101//146 66//147 70//147
f 102//148 106//149 103//148
f 66//150 65//212 104//151
f 105//153 109//213 106//154
f 65//156 112//156 107//157
f 108//159 115//159 109//160
f 110//162 117//162 111//163
f 112//165 119//214 113//166
f 108//167 120//215 114//168
f 116//170 123//170 117//171
f 118//172 125//216 113//173
f 120//175 126//176 121//176
f 122//177 127//177 123//178
f 118//179 128//181 124//180
f 73//112 72//112 121//182
f 76//184 75//184 127//185
f 128//187 79//116 78//116
