# Blender v2.81 (sub 16) OBJ File: 'scenaLeavess.blend'
# www.blender.org
o Cylinder.004
v 4.723387 -0.133688 -12.415447
v 4.546879 -0.506666 -12.139465
v 4.796157 -0.506666 -12.442776
v 4.468897 -0.133688 -12.457647
v 4.408844 -0.506666 -12.507002
v 4.630167 0.304927 -12.380436
v 4.510127 0.304927 -12.400341
v 4.563723 0.514585 -12.355480
v 4.552909 0.304927 -12.286430
v 4.559596 -0.133688 -12.216152
v 4.535689 0.514585 -12.321371
v 4.520165 0.514585 -12.362703
vt 0.000000 0.000000
vt 1.000000 0.000000
vt 1.000000 1.000000
vt 0.000000 0.000000
vt 1.000000 0.000000
vt 1.000000 1.000000
vt 0.000000 0.000000
vt 1.000000 0.000000
vt 1.000000 1.000000
vt 1.000000 0.000000
vt 0.000000 0.000000
vt 0.000000 0.000000
vt 1.000000 0.000000
vt 1.000000 1.000000
vt 1.000000 0.000000
vt 1.000000 1.000000
vt 0.000000 0.000000
vt 1.000000 1.000000
vt 0.000000 0.000000
vt 1.000000 1.000000
vt 0.000000 0.000000
vt 1.000000 0.000000
vt 1.000000 1.000000
vt 1.000000 0.000000
vt 1.000000 1.000000
vt 1.000000 1.000000
vt 1.000000 0.000000
vt 1.000000 0.000000
vt 1.000000 1.000000
vt 1.000000 0.000000
vn 0.7676 0.1123 0.6310
vn 0.7684 0.1036 0.6315
vn -0.9311 0.1036 0.3497
vn 0.1624 0.1124 -0.9803
vn 0.1625 0.1128 -0.9802
vn 0.1624 0.1123 -0.9803
vn 0.1627 0.1036 -0.9812
vn 0.0000 -1.0000 -0.0000
vn 0.1613 0.1669 -0.9727
vn -0.9353 0.0420 0.3513
vn 0.7675 0.1124 0.6311
vn 0.7676 0.1128 0.6309
vn 0.0000 1.0000 0.0000
vn -0.9360 -0.0183 0.3515
vn -0.9360 -0.0183 0.3516
vn 0.7617 0.1669 0.6260
s 1
f 1/1/1 2/2/2 3/3/2
f 2/4/3 4/5/3 5/6/3
f 4/7/4 6/8/5 1/9/6
f 4/7/4 3/10/7 5/6/7
f 3/11/8 2/2/8 5/6/8
f 7/12/9 8/13/9 6/14/9
f 4/7/10 9/15/10 7/16/10
f 10/17/11 6/8/12 9/18/12
f 11/19/13 8/13/13 12/20/13
f 9/21/14 12/22/15 7/16/14
f 9/21/16 8/13/16 11/23/16
f 1/1/1 10/24/11 2/25/2
f 2/4/3 10/24/3 4/26/3
f 4/7/4 7/27/5 6/14/5
f 4/7/4 1/28/6 3/3/7
f 7/12/9 12/22/9 8/29/9
f 4/7/10 10/24/10 9/18/10
f 10/17/11 1/28/1 6/14/12
f 9/21/14 11/30/15 12/20/15
f 9/21/16 6/8/16 8/29/16
o Cylinder.003
v 2.921355 -0.506666 -11.654585
v 2.848363 -0.133688 -11.335222
v 2.879905 -0.506666 -11.264177
v 2.562527 -0.506666 -11.495277
v 2.639825 -0.133688 -11.487072
v 2.816984 0.304927 -11.511248
v 2.875599 -0.133688 -11.591747
v 2.705772 0.304927 -11.461874
v 2.775204 0.514585 -11.453871
v 2.804137 0.304927 -11.390249
v 2.770543 0.514585 -11.409966
v 2.734850 0.514585 -11.435955
vt 0.000000 0.000000
vt 1.000000 0.000000
vt 1.000000 1.000000
vt 0.000000 0.000000
vt 1.000000 0.000000
vt 0.000000 0.000000
vt 1.000000 0.000000
vt 1.000000 1.000000
vt 1.000000 0.000000
vt 1.000000 1.000000
vt 1.000000 0.000000
vt 0.000000 0.000000
vt 1.000000 0.000000
vt 1.000000 1.000000
vt 1.000000 0.000000
vt 1.000000 1.000000
vt 1.000000 1.000000
vt 0.000000 0.000000
vt 1.000000 1.000000
vt 0.000000 0.000000
vt 1.000000 0.000000
vt 1.000000 1.000000
vt 1.000000 1.000000
vt 1.000000 0.000000
vt 1.000000 1.000000
vt 1.000000 0.000000
vt 1.000000 1.000000
vt 1.000000 1.000000
vt 1.000000 0.000000
vt 1.000000 0.000000
vn 0.9891 0.1036 0.1050
vn 0.9881 0.1124 0.1048
vn -0.5855 0.1036 0.8040
vn -0.4033 0.1124 -0.9081
vn -0.4032 0.1128 -0.9081
vn -0.4033 0.1123 -0.9082
vn -0.4036 0.1036 -0.9091
vn 0.0000 -1.0000 -0.0000
vn -0.4001 0.1669 -0.9012
vn -0.4001 0.1669 -0.9011
vn -0.5881 0.0420 0.8077
vn 0.9881 0.1128 0.1049
vn 0.0000 1.0000 0.0000
vn -0.5885 -0.0183 0.8083
vn 0.9805 0.1669 0.1041
vn 0.9881 0.1123 0.1048
s 1
f 13/31/17 14/32/18 15/33/17
f 14/34/19 16/35/19 15/33/19
f 17/36/20 18/37/21 19/38/22
f 17/36/20 13/39/23 16/40/23
f 13/31/24 15/41/24 16/40/24
f 20/42/25 21/43/26 18/44/25
f 14/34/27 20/45/27 17/46/27
f 14/34/18 18/37/28 22/47/28
f 23/48/29 21/43/29 24/49/29
f 22/50/30 24/51/30 20/52/30
f 22/50/31 21/43/31 23/53/31
f 13/31/17 19/54/32 14/55/18
f 14/34/19 17/56/19 16/40/19
f 17/36/20 20/45/21 18/44/21
f 17/36/20 19/54/22 13/57/23
f 20/42/25 24/51/26 21/58/26
f 14/34/27 22/59/27 20/52/27
f 14/34/18 19/54/32 18/44/28
f 22/50/30 23/60/30 24/49/30
f 22/50/31 18/37/31 21/58/31
o Cylinder.002
v 3.923526 -0.506666 -12.390303
v 4.229034 -0.133688 -12.272043
v 4.303884 -0.506666 -12.293016
v 4.029453 -0.506666 -12.012260
v 4.048715 -0.133688 -12.087568
v 4.050323 0.304927 -12.266361
v 3.979114 -0.133688 -12.335968
v 4.083153 0.304927 -12.149195
v 4.101080 0.514585 -12.216749
v 4.168208 0.304927 -12.236210
v 4.143855 0.514585 -12.205809
v 4.112992 0.514585 -12.174234
vt 0.000000 0.000000
vt 1.000000 0.000000
vt 1.000000 1.000000
vt 0.000000 0.000000
vt 1.000000 0.000000
vt 0.000000 0.000000
vt 1.000000 0.000000
vt 1.000000 1.000000
vt 1.000000 0.000000
vt 1.000000 1.000000
vt 1.000000 0.000000
vt 0.000000 0.000000
vt 1.000000 0.000000
vt 1.000000 1.000000
vt 1.000000 0.000000
vt 1.000000 1.000000
vt 1.000000 1.000000
vt 0.000000 0.000000
vt 1.000000 1.000000
vt 1.000000 0.000000
vt 0.000000 0.000000
vt 1.000000 1.000000
vt 1.000000 0.000000
vt 1.000000 1.000000
vt 1.000000 0.000000
vt 1.000000 1.000000
vt 1.000000 0.000000
vt 1.000000 1.000000
vt 1.000000 0.000000
vt 1.000000 1.000000
vn 0.2465 0.1036 -0.9636
vn 0.2464 0.1124 -0.9626
vn 0.7113 0.1036 0.6952
vn -0.9567 0.1124 0.2684
vn -0.9568 0.1128 0.2681
vn -0.9568 0.1123 0.2683
vn -0.9577 0.1036 0.2684
vn 0.0000 -1.0000 0.0000
vn -0.9494 0.1669 0.2660
vn 0.7145 0.0420 0.6984
vn 0.2462 0.1128 -0.9626
vn 0.0000 1.0000 0.0000
vn 0.7150 -0.0183 0.6989
vn 0.2443 0.1669 -0.9552
vn 0.2463 0.1123 -0.9627
s 1
f 25/61/33 26/62/34 27/63/33
f 26/64/35 28/65/35 27/63/35
f 29/66/36 30/67/37 31/68/38
f 29/66/36 25/69/39 28/70/39
f 25/61/40 27/71/40 28/70/40
f 32/72/41 33/73/41 30/74/41
f 26/64/42 32/75/42 29/76/42
f 26/64/34 30/67/43 34/77/43
f 35/78/44 33/73/44 36/79/44
f 32/72/45 35/80/45 36/79/45
f 34/81/46 33/73/46 35/82/46
f 25/61/33 31/83/47 26/84/34
f 26/64/35 29/85/35 28/70/35
f 29/66/36 32/75/37 30/74/37
f 29/66/36 31/83/38 25/86/39
f 32/72/41 36/87/41 33/88/41
f 26/64/42 34/89/42 32/90/42
f 26/64/34 31/83/47 30/74/43
f 32/72/45 34/89/45 35/82/45
f 34/81/46 30/67/46 33/88/46
o Cylinder.005
v 2.909838 -0.506666 -11.643637
v 3.215346 -0.133688 -11.525377
v 3.290196 -0.506666 -11.546350
v 3.015765 -0.506666 -11.265594
v 3.035027 -0.133688 -11.340902
v 3.036636 0.304927 -11.519695
v 2.965426 -0.133688 -11.589302
v 3.069466 0.304927 -11.402529
v 3.087392 0.514585 -11.470083
v 3.154520 0.304927 -11.489544
v 3.130167 0.514585 -11.459143
v 3.099305 0.514585 -11.427568
vt 0.000000 0.000000
vt 1.000000 0.000000
vt 1.000000 1.000000
vt 0.000000 0.000000
vt 1.000000 0.000000
vt 0.000000 0.000000
vt 1.000000 0.000000
vt 1.000000 1.000000
vt 1.000000 0.000000
vt 1.000000 1.000000
vt 1.000000 0.000000
vt 0.000000 0.000000
vt 1.000000 0.000000
vt 1.000000 1.000000
vt 1.000000 0.000000
vt 1.000000 1.000000
vt 1.000000 1.000000
vt 0.000000 0.000000
vt 1.000000 1.000000
vt 1.000000 0.000000
vt 0.000000 0.000000
vt 1.000000 1.000000
vt 1.000000 0.000000
vt 1.000000 1.000000
vt 1.000000 0.000000
vt 1.000000 1.000000
vt 1.000000 0.000000
vt 1.000000 1.000000
vt 1.000000 0.000000
vt 1.000000 1.000000
vn 0.2465 0.1036 -0.9636
vn 0.2464 0.1124 -0.9626
vn 0.7113 0.1036 0.6952
vn -0.9567 0.1124 0.2684
vn -0.9568 0.1128 0.2681
vn -0.9568 0.1123 0.2683
vn -0.9577 0.1036 0.2684
vn 0.0000 -1.0000 0.0000
vn -0.9494 0.1669 0.2660
vn 0.7145 0.0420 0.6984
vn 0.2462 0.1128 -0.9626
vn 0.0000 1.0000 0.0000
vn 0.7150 -0.0183 0.6989
vn 0.2443 0.1669 -0.9552
vn 0.2463 0.1123 -0.9627
s 1
f 37/91/48 38/92/49 39/93/48
f 38/94/50 40/95/50 39/93/50
f 41/96/51 42/97/52 43/98/53
f 41/96/51 37/99/54 40/100/54
f 37/91/55 39/101/55 40/100/55
f 44/102/56 45/103/56 42/104/56
f 38/94/57 44/105/57 41/106/57
f 38/94/49 42/97/58 46/107/58
f 47/108/59 45/103/59 48/109/59
f 44/102/60 47/110/60 48/109/60
f 46/111/61 45/103/61 47/112/61
f 37/91/48 43/113/62 38/114/49
f 38/94/50 41/115/50 40/100/50
f 41/96/51 44/105/52 42/104/52
f 41/96/51 43/113/53 37/116/54
f 44/102/56 48/117/56 45/118/56
f 38/94/57 46/119/57 44/120/57
f 38/94/49 43/113/62 42/104/58
f 44/102/60 46/119/60 47/112/60
f 46/111/61 42/97/61 45/118/61
o Cylinder.006
v 2.922529 -0.506666 -12.824368
v 2.983608 -0.133688 -12.502516
v 3.040973 -0.506666 -12.450058
v 2.657589 -0.506666 -12.534637
v 2.731700 -0.133688 -12.558088
v 2.884330 0.304927 -12.651222
v 2.905782 -0.133688 -12.748461
v 2.802217 0.304927 -12.561424
v 2.869040 0.514585 -12.581911
v 2.921040 0.304927 -12.535212
v 2.882360 0.514585 -12.539816
v 2.839245 0.514585 -12.549328
vt 0.000000 0.000000
vt 1.000000 0.000000
vt 1.000000 1.000000
vt 0.000000 0.000000
vt 1.000000 0.000000
vt 0.000000 0.000000
vt 1.000000 0.000000
vt 1.000000 1.000000
vt 1.000000 0.000000
vt 1.000000 1.000000
vt 1.000000 0.000000
vt 0.000000 0.000000
vt 1.000000 0.000000
vt 1.000000 1.000000
vt 1.000000 0.000000
vt 1.000000 1.000000
vt 1.000000 1.000000
vt 0.000000 0.000000
vt 1.000000 1.000000
vt 0.000000 0.000000
vt 1.000000 0.000000
vt 1.000000 1.000000
vt 1.000000 1.000000
vt 1.000000 0.000000
vt 1.000000 1.000000
vt 1.000000 0.000000
vt 1.000000 1.000000
vt 1.000000 1.000000
vt 1.000000 0.000000
vt 1.000000 0.000000
vn 0.9483 0.1036 -0.3001
vn 0.9473 0.1124 -0.2999
vn -0.2143 0.1036 0.9713
vn -0.7334 0.1124 -0.6704
vn -0.7333 0.1128 -0.6705
vn -0.7334 0.1123 -0.6705
vn -0.7340 0.1036 -0.6712
vn 0.0000 -1.0000 0.0000
vn -0.7276 0.1669 -0.6654
vn -0.2152 0.0420 0.9757
vn 0.9473 0.1128 -0.2998
vn 0.0000 1.0000 0.0000
vn -0.2154 -0.0183 0.9764
vn 0.9400 0.1669 -0.2975
vn 0.9400 0.1669 -0.2974
vn 0.9473 0.1123 -0.2999
s 1
f 49/121/63 50/122/64 51/123/63
f 50/124/65 52/125/65 51/123/65
f 53/126/66 54/127/67 55/128/68
f 53/126/66 49/129/69 52/130/69
f 49/121/70 51/131/70 52/130/70
f 56/132/71 57/133/71 54/134/71
f 50/124/72 56/135/72 53/136/72
f 50/124/64 54/127/73 58/137/73
f 59/138/74 57/133/74 60/139/74
f 58/140/75 60/141/75 56/142/75
f 58/140/76 57/133/76 59/143/77
f 49/121/63 55/144/78 50/145/64
f 50/124/65 53/146/65 52/130/65
f 53/126/66 56/135/67 54/134/67
f 53/126/66 55/144/68 49/147/69
f 56/132/71 60/141/71 57/148/71
f 50/124/72 58/149/72 56/142/72
f 50/124/64 55/144/78 54/134/73
f 58/140/75 59/150/75 60/139/75
f 58/140/76 54/127/76 57/148/76
o Cylinder.007
v 3.557792 -0.133688 -11.747334
v 3.754093 -0.506666 -11.485062
v 3.557792 -0.506666 -11.825066
v 3.428809 -0.133688 -11.523928
v 3.361490 -0.506666 -11.485062
v 3.557792 0.304927 -11.647755
v 3.496952 0.304927 -11.542377
v 3.557792 0.514585 -11.576778
v 3.618631 0.304927 -11.542377
v 3.686775 -0.133688 -11.523928
v 3.579868 0.514585 -11.538542
v 3.535716 0.514585 -11.538542
vt 0.000000 0.000000
vt 1.000000 0.000000
vt 1.000000 1.000000
vt 0.000000 0.000000
vt 1.000000 0.000000
vt 1.000000 1.000000
vt 0.000000 0.000000
vt 1.000000 0.000000
vt 1.000000 1.000000
vt 1.000000 0.000000
vt 0.000000 0.000000
vt 0.000000 0.000000
vt 1.000000 0.000000
vt 1.000000 1.000000
vt 1.000000 0.000000
vt 1.000000 1.000000
vt 0.000000 0.000000
vt 1.000000 1.000000
vt 0.000000 0.000000
vt 1.000000 1.000000
vt 0.000000 0.000000
vt 1.000000 0.000000
vt 1.000000 1.000000
vt 1.000000 0.000000
vt 1.000000 1.000000
vt 1.000000 1.000000
vt 1.000000 0.000000
vt 1.000000 0.000000
vt 1.000000 1.000000
vt 1.000000 0.000000
vn 0.8606 0.1123 -0.4967
vn 0.8614 0.1036 -0.4973
vn 0.0000 0.1036 0.9946
vn -0.8606 0.1124 -0.4967
vn -0.8605 0.1128 -0.4968
vn -0.8606 0.1123 -0.4967
vn -0.8614 0.1036 -0.4973
vn 0.0000 -1.0000 -0.0000
vn -0.8539 0.1669 -0.4930
vn 0.0000 0.0420 0.9991
vn 0.8606 0.1124 -0.4967
vn 0.8605 0.1128 -0.4968
vn 0.0000 1.0000 0.0000
vn 0.0000 -0.0183 0.9998
vn 0.8539 0.1669 -0.4930
s 1
f 61/151/79 62/152/80 63/153/80
f 62/154/81 64/155/81 65/156/81
f 64/157/82 66/158/83 61/159/84
f 64/157/82 63/160/85 65/156/85
f 63/161/86 62/152/86 65/156/86
f 67/162/87 68/163/87 66/164/87
f 64/157/88 69/165/88 67/166/88
f 70/167/89 66/158/90 69/168/90
f 71/169/91 68/163/91 72/170/91
f 69/171/92 72/172/92 67/166/92
f 69/171/93 68/163/93 71/173/93
f 61/151/79 70/174/89 62/175/80
f 62/154/81 70/174/81 64/176/81
f 64/157/82 67/177/83 66/164/83
f 64/157/82 61/178/84 63/153/85
f 67/162/87 72/172/87 68/179/87
f 64/157/88 70/174/88 69/168/88
f 70/167/89 61/178/79 66/164/90
f 69/171/92 71/180/92 72/170/92
f 69/171/93 66/158/93 68/179/93
o Cylinder.008
v 3.823452 -0.506666 -11.471416
v 3.704814 -0.133688 -11.166056
v 3.725694 -0.506666 -11.091179
v 3.445278 -0.506666 -11.365959
v 3.520562 -0.133688 -11.346603
v 3.699354 0.304927 -11.344772
v 3.769047 -0.133688 -11.415895
v 3.582146 0.304927 -11.312088
v 3.649678 0.514585 -11.294079
v 3.669055 0.304927 -11.226927
v 3.638684 0.514585 -11.251316
v 3.607149 0.514585 -11.282219
vt 0.000000 0.000000
vt 1.000000 0.000000
vt 1.000000 1.000000
vt 0.000000 0.000000
vt 1.000000 0.000000
vt 0.000000 0.000000
vt 1.000000 0.000000
vt 1.000000 1.000000
vt 1.000000 0.000000
vt 1.000000 1.000000
vt 1.000000 0.000000
vt 0.000000 0.000000
vt 1.000000 0.000000
vt 1.000000 1.000000
vt 1.000000 0.000000
vt 1.000000 1.000000
vt 1.000000 1.000000
vt 0.000000 0.000000
vt 1.000000 1.000000
vt 1.000000 0.000000
vt 0.000000 0.000000
vt 1.000000 1.000000
vt 1.000000 0.000000
vt 1.000000 1.000000
vt 1.000000 0.000000
vt 1.000000 1.000000
vt 1.000000 0.000000
vt 1.000000 1.000000
vt 1.000000 0.000000
vt 1.000000 1.000000
vn 0.9633 0.1036 0.2477
vn 0.9623 0.1124 0.2476
vn -0.6961 0.1036 0.7104
vn -0.2672 0.1124 -0.9571
vn -0.2669 0.1128 -0.9571
vn -0.2672 0.1123 -0.9571
vn -0.2672 0.1036 -0.9581
vn -0.0000 -1.0000 -0.0000
vn -0.2648 0.1669 -0.9497
vn -0.2649 0.1669 -0.9497
vn -0.6993 0.0420 0.7136
vn 0.9623 0.1128 0.2474
vn 0.0000 1.0000 0.0000
vn -0.6998 -0.0183 0.7141
vn 0.9549 0.1669 0.2455
vn 0.9624 0.1123 0.2475
s 1
f 73/181/94 74/182/95 75/183/94
f 74/184/96 76/185/96 75/183/96
f 77/186/97 78/187/98 79/188/99
f 77/186/97 73/189/100 76/190/100
f 73/181/101 75/191/101 76/190/101
f 80/192/102 81/193/103 78/194/102
f 74/184/104 80/195/104 77/196/104
f 74/184/95 78/187/105 82/197/105
f 83/198/106 81/193/106 84/199/106
f 80/192/107 83/200/107 84/199/107
f 82/201/108 81/193/108 83/202/108
f 73/181/94 79/203/109 74/204/95
f 74/184/96 77/205/96 76/190/96
f 77/186/97 80/195/98 78/194/98
f 77/186/97 79/203/99 73/206/100
f 80/192/102 84/207/103 81/208/103
f 74/184/104 82/209/104 80/210/104
f 74/184/95 79/203/109 78/194/105
f 80/192/107 82/209/107 83/202/107
f 82/201/108 78/187/108 81/208/108
o Cylinder.009
v 4.181360 -0.506666 -10.949400
v 3.862088 -0.133688 -11.022787
v 3.791003 -0.506666 -10.991334
v 4.022498 -0.506666 -11.308426
v 4.014195 -0.133688 -11.231138
v 4.038152 0.304927 -11.053949
v 4.118578 -0.133688 -10.995234
v 3.988916 0.304927 -11.165222
v 3.980827 0.514585 -11.095800
v 3.917169 0.304927 -11.066946
v 3.936927 0.514585 -11.100515
v 3.962961 0.514585 -11.136175
vt 0.000000 0.000000
vt 1.000000 0.000000
vt 1.000000 1.000000
vt 0.000000 0.000000
vt 1.000000 0.000000
vt 0.000000 0.000000
vt 1.000000 0.000000
vt 1.000000 1.000000
vt 1.000000 0.000000
vt 1.000000 1.000000
vt 1.000000 0.000000
vt 0.000000 0.000000
vt 1.000000 0.000000
vt 1.000000 1.000000
vt 1.000000 0.000000
vt 1.000000 1.000000
vt 1.000000 1.000000
vt 0.000000 0.000000
vt 1.000000 1.000000
vt 0.000000 0.000000
vt 1.000000 0.000000
vt 1.000000 1.000000
vt 1.000000 1.000000
vt 1.000000 0.000000
vt 1.000000 1.000000
vt 1.000000 0.000000
vt 1.000000 1.000000
vt 1.000000 1.000000
vt 1.000000 0.000000
vt 1.000000 0.000000
vn -0.1062 0.1036 0.9889
vn -0.1060 0.1124 0.9880
vn -0.8033 0.1036 -0.5865
vn 0.9086 0.1124 -0.4022
vn 0.9086 0.1128 -0.4021
vn 0.9086 0.1123 -0.4022
vn 0.9096 0.1036 -0.4025
vn 0.0000 -1.0000 0.0000
vn 0.9017 0.1669 -0.3990
vn 0.9016 0.1669 -0.3990
vn -0.8070 0.0420 -0.5891
vn -0.1061 0.1128 0.9879
vn 0.0000 1.0000 0.0000
vn -0.8075 -0.0183 -0.5895
vn -0.1053 0.1669 0.9803
vn -0.1060 0.1123 0.9880
vn -0.8075 -0.0183 -0.5896
s 1
f 85/211/110 86/212/111 87/213/110
f 86/214/112 88/215/112 87/213/112
f 89/216/113 90/217/114 91/218/115
f 89/216/113 85/219/116 88/220/116
f 85/211/117 87/221/117 88/220/117
f 92/222/118 93/223/119 90/224/118
f 86/214/120 92/225/120 89/226/120
f 86/214/111 90/217/121 94/227/121
f 95/228/122 93/223/122 96/229/122
f 94/230/123 96/231/123 92/232/123
f 94/230/124 93/223/124 95/233/124
f 85/211/110 91/234/125 86/235/111
f 86/214/112 89/236/112 88/220/112
f 89/216/113 92/225/114 90/224/114
f 89/216/113 91/234/115 85/237/116
f 92/222/118 96/231/119 93/238/119
f 86/214/120 94/239/120 92/232/120
f 86/214/111 91/234/125 90/224/121
f 94/230/123 95/240/126 96/229/123
f 94/230/124 90/217/124 93/238/124
o Cylinder.010
v 3.926344 -0.133688 -10.823336
v 3.663830 -0.506666 -10.627359
v 4.004077 -0.506666 -10.823238
v 3.703099 -0.133688 -10.952595
v 3.664317 -0.506666 -11.019962
v 3.826766 0.304927 -10.823459
v 3.721465 0.304927 -10.884429
v 3.755790 0.514585 -10.823546
v 3.721314 0.304927 -10.762750
v 3.702779 -0.133688 -10.694630
v 3.717526 0.514585 -10.801518
v 3.717581 0.514585 -10.845670
vt 0.000000 0.000000
vt 1.000000 0.000000
vt 1.000000 1.000000
vt 0.000000 0.000000
vt 1.000000 0.000000
vt 1.000000 1.000000
vt 0.000000 0.000000
vt 1.000000 0.000000
vt 1.000000 1.000000
vt 1.000000 0.000000
vt 0.000000 0.000000
vt 0.000000 0.000000
vt 1.000000 0.000000
vt 1.000000 1.000000
vt 1.000000 0.000000
vt 1.000000 1.000000
vt 0.000000 0.000000
vt 1.000000 1.000000
vt 0.000000 0.000000
vt 1.000000 1.000000
vt 0.000000 0.000000
vt 1.000000 0.000000
vt 1.000000 1.000000
vt 1.000000 0.000000
vt 1.000000 1.000000
vt 1.000000 1.000000
vt 1.000000 0.000000
vt 1.000000 0.000000
vt 1.000000 1.000000
vt 1.000000 0.000000
vn 0.4956 0.1123 0.8612
vn 0.4962 0.1036 0.8620
vn -0.9946 0.1036 -0.0012
vn 0.4977 0.1124 -0.8600
vn 0.4979 0.1128 -0.8599
vn 0.4978 0.1123 -0.8600
vn 0.4984 0.1036 -0.8607
vn 0.0000 -1.0000 -0.0000
vn 0.4941 0.1669 -0.8533
vn 0.4940 0.1669 -0.8533
vn -0.9991 0.0420 -0.0012
vn 0.4956 0.1124 0.8613
vn 0.4957 0.1128 0.8611
vn 0.4958 0.1128 0.8611
vn 0.0000 1.0000 0.0000
vn -0.9998 -0.0183 -0.0012
vn 0.4919 0.1669 0.8545
s 1
f 97/241/127 98/242/128 99/243/128
f 98/244/129 100/245/129 101/246/129
f 100/247/130 102/248/131 97/249/132
f 100/247/130 99/250/133 101/246/133
f 99/251/134 98/242/134 101/246/134
f 103/252/135 104/253/136 102/254/135
f 100/247/137 105/255/137 103/256/137
f 106/257/138 102/248/139 105/258/140
f 107/259/141 104/253/141 108/260/141
f 105/261/142 108/262/142 103/256/142
f 105/261/143 104/253/143 107/263/143
f 97/241/127 106/264/138 98/265/128
f 98/244/129 106/264/129 100/266/129
f 100/247/130 103/267/131 102/254/131
f 100/247/130 97/268/132 99/243/133
f 103/252/135 108/262/136 104/269/136
f 100/247/137 106/264/137 105/258/137
f 106/257/138 97/268/127 102/254/139
f 105/261/142 107/270/142 108/260/142
f 105/261/143 102/248/143 104/269/143
