# Blender v2.81 (sub 16) OBJ File: 'scenaRocks1_light_grey.blend'
# www.blender.org
o Icosphere
v -4.100793 -0.207319 -0.244721
v -4.603782 -0.682520 -0.837274
v -3.954605 -0.263631 -1.003645
v -5.355506 -0.530674 -0.319095
v -5.277519 -0.653700 -1.107007
v -4.393228 0.304322 -1.765268
v -5.315144 0.567998 -1.485190
v -4.796742 0.872911 -1.092239
v -4.635857 0.789283 -0.492757
v -4.047840 0.357919 -1.237568
v -5.355688 0.901333 -0.545109
v -5.788906 0.361433 -1.119713
v -5.457438 0.503870 -0.166631
v -4.406126 0.350448 -0.142869
v -4.181482 -0.206711 -1.653834
v -4.688672 -0.234142 -1.873451
v -5.433090 -0.232817 -1.709333
v -5.833726 -0.258994 -1.272401
v -5.900412 -0.239216 -0.632905
v -5.440516 -0.239218 0.000088
v -4.819107 -0.256852 0.135637
vt 0.000000 0.000000
vt 1.000000 0.000000
vt 1.000000 1.000000
vt 0.000000 0.000000
vt 1.000000 0.000000
vt 1.000000 1.000000
vt 0.000000 0.000000
vt 1.000000 0.000000
vt 1.000000 1.000000
vt 0.000000 0.000000
vt 1.000000 0.000000
vt 0.000000 0.000000
vt 1.000000 0.000000
vt 0.000000 0.000000
vt 1.000000 0.000000
vt 1.000000 0.000000
vt 1.000000 1.000000
vt 0.000000 0.000000
vt 1.000000 0.000000
vt 0.000000 0.000000
vt 1.000000 0.000000
vt 1.000000 1.000000
vt 0.000000 0.000000
vt 1.000000 0.000000
vt 0.000000 0.000000
vt 0.000000 0.000000
vt 1.000000 0.000000
vt 1.000000 1.000000
vt 0.000000 0.000000
vt 0.000000 0.000000
vt 1.000000 1.000000
vt 1.000000 0.000000
vt 1.000000 1.000000
vt 0.000000 0.000000
vt 0.000000 0.000000
vt 1.000000 0.000000
vt 1.000000 1.000000
vt 0.000000 0.000000
vt 0.000000 0.000000
vt 1.000000 0.000000
vt 1.000000 1.000000
vt 0.000000 0.000000
vt 1.000000 1.000000
vt 1.000000 0.000000
vt 1.000000 0.000000
vt 1.000000 0.000000
vt 1.000000 1.000000
vt 1.000000 0.000000
vt 1.000000 0.000000
vt 1.000000 1.000000
vt 1.000000 0.000000
vt 1.000000 1.000000
vt 0.000000 0.000000
vt 1.000000 1.000000
vt 1.000000 1.000000
vt 1.000000 1.000000
vt 0.000000 0.000000
vt 1.000000 1.000000
vn 0.5646 -0.8080 0.1687
vn -0.0997 -0.9846 0.1439
vn 0.0277 0.7717 -0.6354
vn 0.5616 0.8267 -0.0354
vn 0.4699 0.7928 -0.3881
vn -0.2788 0.9013 -0.3316
vn -0.5649 0.7697 -0.2973
vn -0.8646 0.4444 0.2343
vn 0.1461 0.9844 0.0981
vn 0.0530 0.6815 0.7299
vn 0.0771 0.6459 0.7595
vn 0.7597 0.5992 0.2527
vn 0.9445 0.0182 -0.3280
vn 0.8071 0.2145 -0.5501
vn -0.1989 0.2968 -0.9340
vn -0.2054 0.2917 -0.9342
vn -0.6607 0.2910 -0.6920
vn -0.9895 0.0976 -0.1062
vn -0.8925 0.3722 0.2548
vn -0.2027 0.2100 0.9565
vn 0.0370 0.3957 0.9176
vn 0.8618 0.4197 0.2849
vn 0.3987 -0.0346 -0.9164
vn -0.7264 0.2133 -0.6533
vn -0.8039 0.1127 0.5840
vn -0.6074 -0.6605 0.4413
vn 0.4611 0.0912 0.8827
vn 0.9631 0.2085 0.1701
vn 0.2223 -0.8880 -0.4025
vn 0.1224 -0.9072 -0.4026
vn -0.1221 -0.8281 -0.5471
vn -0.4288 -0.7888 -0.4404
vn -0.5716 -0.8198 -0.0343
vn -0.5071 -0.8578 0.0838
vn 0.4816 -0.8424 -0.2418
vn -0.1613 -0.7498 0.6417
vn 0.1060 -0.9022 0.4182
vn 0.2900 -0.8516 0.4368
s off
f 1/1/1 2/2/1 3/3/1
f 2/4/2 4/5/2 5/6/2
f 6/7/3 7/8/3 8/9/3
f 9/10/4 10/11/4 8/9/4
f 10/12/5 6/13/5 8/9/5
f 7/14/6 11/15/6 8/9/6
f 7/14/7 12/16/7 11/17/7
f 12/18/8 13/19/8 11/17/8
f 11/20/9 9/21/9 8/9/9
f 11/20/10 13/19/10 9/22/10
f 13/23/11 14/24/11 9/22/11
f 14/25/12 10/11/12 9/22/12
f 3/26/13 15/27/13 10/28/13
f 15/29/14 6/13/14 10/28/14
f 16/30/15 7/8/15 6/31/15
f 16/30/16 17/32/16 7/33/16
f 17/34/17 12/16/17 7/33/17
f 18/35/18 19/36/18 12/37/18
f 19/38/19 13/19/19 12/37/19
f 20/39/20 21/40/20 13/41/20
f 21/42/21 14/24/21 13/41/21
f 1/1/22 10/11/22 14/43/22
f 15/29/23 16/44/23 6/31/23
f 17/34/24 18/45/24 12/37/24
f 19/38/25 20/46/25 13/41/25
f 19/38/26 4/5/26 20/47/26
f 21/42/27 1/48/27 14/43/27
f 1/1/28 3/49/28 10/28/28
f 2/4/29 16/44/29 15/50/29
f 2/4/30 5/51/30 16/52/30
f 5/53/31 17/32/31 16/52/31
f 5/53/32 18/45/32 17/54/32
f 5/53/33 19/36/33 18/55/33
f 5/53/34 4/5/34 19/56/34
f 3/26/35 2/2/35 15/50/35
f 4/57/36 21/40/36 20/47/36
f 4/57/37 2/2/37 21/58/37
f 2/4/38 1/48/38 21/58/38
o Sphere
v -7.201138 0.230110 -0.650475
v -6.830298 0.814296 -0.393725
v -5.982182 0.239318 -0.495498
v -6.088305 -0.307762 -0.545901
v -6.421070 1.042529 0.041939
v -5.337260 0.231857 -0.028043
v -6.690154 1.376089 0.660638
v -5.104983 0.437228 0.602683
v -4.952528 -0.295483 0.647415
v -5.372835 -0.386433 -0.009640
v -5.101770 -0.622025 1.402155
v -5.579777 -0.868431 0.376136
v -5.294089 0.680373 1.083504
v -5.132600 0.285633 1.936112
v -4.867542 0.030293 1.041838
v -5.092327 -0.269677 1.915063
v -5.921571 -1.099021 0.921208
v -6.355731 -1.141022 1.700926
v -5.920198 -0.810126 2.239578
v -5.522842 0.739678 1.700505
v -6.832167 1.193696 1.526566
v -5.728917 -0.088316 2.626959
v -5.735244 -0.425054 2.509708
v -6.551382 1.039726 2.205872
v -6.199796 0.780754 2.436805
v -6.633110 0.453644 2.811938
v -7.258686 -0.318851 3.004495
v -7.120479 0.875284 2.498224
v -7.196670 -0.660086 2.813130
v -7.493707 -1.047318 1.868802
v -7.397060 0.470957 2.792665
v -7.808994 -0.828201 2.711310
v -7.342201 1.360743 0.980019
v -8.233454 -0.554580 2.687167
v -8.113889 0.540434 2.303430
v -7.445505 -1.138976 0.656301
v -6.722047 -1.208799 1.323923
v -8.413990 0.121782 2.441800
v -8.672145 -0.403146 2.051177
v -8.625011 -0.667877 1.499206
v -8.170549 0.972411 0.997211
v -8.155945 -0.871704 2.288012
v -8.728262 0.271761 0.820868
v -8.748111 0.055370 0.465331
v -8.399666 -0.272875 0.037351
v -8.413699 0.118229 -0.058202
v -8.521793 0.547536 0.308628
v -7.655811 1.247326 0.325155
v -7.642884 0.938073 -0.172317
v -8.055805 -0.871413 0.500210
v -7.411757 -0.806387 -0.161476
v -6.590122 -1.158566 0.471180
v -7.117786 1.411981 0.422565
v -7.207565 -0.327700 -0.588742
v -6.420663 -0.698303 -0.387971
vt 0.000000 0.000000
vt 1.000000 0.000000
vt 1.000000 1.000000
vt 1.000000 0.000000
vt 1.000000 1.000000
vt 0.000000 0.000000
vt 1.000000 0.000000
vt 0.000000 0.000000
vt 1.000000 1.000000
vt 0.000000 0.000000
vt 1.000000 0.000000
vt 1.000000 1.000000
vt 0.000000 0.000000
vt 1.000000 0.000000
vt 1.000000 1.000000
vt 1.000000 0.000000
vt 1.000000 1.000000
vt 0.000000 0.000000
vt 1.000000 0.000000
vt 1.000000 1.000000
vt 0.000000 0.000000
vt 1.000000 0.000000
vt 0.000000 0.000000
vt 1.000000 1.000000
vt 0.000000 0.000000
vt 0.000000 0.000000
vt 1.000000 0.000000
vt 0.000000 0.000000
vt 1.000000 1.000000
vt 0.000000 0.000000
vt 1.000000 1.000000
vt 0.000000 0.000000
vt 1.000000 1.000000
vt 1.000000 0.000000
vt 1.000000 1.000000
vt 0.000000 0.000000
vt 1.000000 1.000000
vt 0.000000 0.000000
vt 1.000000 0.000000
vt 1.000000 1.000000
vt 0.000000 0.000000
vt 1.000000 0.000000
vt 0.000000 0.000000
vt 1.000000 0.000000
vt 1.000000 1.000000
vt 0.000000 0.000000
vt 1.000000 0.000000
vt 1.000000 1.000000
vt 0.000000 0.000000
vt 1.000000 0.000000
vt 1.000000 1.000000
vt 1.000000 0.000000
vt 1.000000 1.000000
vt 1.000000 0.000000
vt 0.000000 0.000000
vt 1.000000 0.000000
vt 1.000000 1.000000
vt 0.000000 0.000000
vt 1.000000 0.000000
vt 1.000000 1.000000
vt 1.000000 1.000000
vt 0.000000 0.000000
vt 1.000000 1.000000
vt 0.000000 0.000000
vt 1.000000 0.000000
vt 1.000000 1.000000
vt 0.000000 0.000000
vt 1.000000 0.000000
vt 0.000000 0.000000
vt 1.000000 0.000000
vt 0.000000 0.000000
vt 1.000000 0.000000
vt 0.000000 0.000000
vt 1.000000 1.000000
vt 0.000000 0.000000
vt 1.000000 0.000000
vt 1.000000 1.000000
vt 0.000000 0.000000
vt 1.000000 0.000000
vt 1.000000 1.000000
vt 1.000000 0.000000
vt 1.000000 1.000000
vt 0.000000 0.000000
vt 1.000000 1.000000
vt 0.000000 0.000000
vt 1.000000 0.000000
vt 1.000000 1.000000
vt 0.000000 0.000000
vt 1.000000 1.000000
vt 0.000000 0.000000
vt 1.000000 1.000000
vt 0.000000 0.000000
vt 1.000000 0.000000
vt 1.000000 1.000000
vt 1.000000 0.000000
vt 1.000000 1.000000
vt 1.000000 1.000000
vt 0.000000 0.000000
vt 1.000000 0.000000
vt 0.000000 0.000000
vt 0.000000 0.000000
vt 1.000000 0.000000
vt 1.000000 0.000000
vt 1.000000 1.000000
vt 1.000000 0.000000
vt 0.000000 0.000000
vt 1.000000 1.000000
vt 0.000000 0.000000
vt 1.000000 0.000000
vt 1.000000 0.000000
vt 1.000000 1.000000
vt 1.000000 1.000000
vt 0.000000 0.000000
vt 1.000000 0.000000
vt 1.000000 0.000000
vt 1.000000 1.000000
vt 0.000000 0.000000
vt 1.000000 0.000000
vt 1.000000 1.000000
vt 1.000000 0.000000
vt 1.000000 0.000000
vt 1.000000 1.000000
vt 0.000000 0.000000
vt 1.000000 0.000000
vt 1.000000 0.000000
vt 1.000000 1.000000
vt 1.000000 1.000000
vt 1.000000 0.000000
vt 1.000000 0.000000
vt 0.000000 0.000000
vt 1.000000 1.000000
vt 1.000000 0.000000
vt 1.000000 1.000000
vt 1.000000 0.000000
vt 0.000000 0.000000
vt 1.000000 1.000000
vt 0.000000 0.000000
vt 1.000000 0.000000
vt 1.000000 1.000000
vt 0.000000 0.000000
vt 1.000000 0.000000
vt 1.000000 0.000000
vt 1.000000 1.000000
vt 1.000000 1.000000
vt 1.000000 1.000000
vt 1.000000 1.000000
vt 1.000000 0.000000
vn 0.1162 0.3369 -0.9344
vn 0.1253 0.0669 -0.9899
vn 0.3573 0.6464 -0.6742
vn 0.4493 0.6533 -0.6094
vn 0.4882 0.8391 -0.2400
vn 0.9069 0.1650 -0.3877
vn 0.8447 -0.0644 -0.5314
vn 0.7027 -0.6931 -0.1609
vn 0.8544 0.5140 0.0761
vn 0.8201 0.5664 0.0814
vn 0.9488 -0.3115 0.0528
vn 0.9616 0.0596 0.2680
vn 0.4127 -0.8925 0.1817
vn 0.6053 -0.6612 0.4431
vn 0.2889 0.9261 0.2425
vn 0.7488 0.0292 0.6622
vn 0.6893 -0.2497 0.6800
vn 0.3166 0.9449 0.0833
vn 0.4100 0.8505 0.3295
vn 0.4079 0.4005 0.8205
vn 0.2315 0.0547 0.9713
vn 0.1203 0.7467 0.6542
vn -0.0193 -0.9229 0.3845
vn -0.0069 0.5918 0.8061
vn -0.1356 0.9527 0.2720
vn 0.2018 -0.9268 0.3166
vn 0.0842 0.9722 0.2186
vn -0.3446 0.1864 0.9201
vn -0.0102 -0.4905 0.8714
vn -0.3476 0.9166 0.1972
vn -0.1580 -0.9851 0.0682
vn -0.8247 -0.0151 0.5653
vn -0.6518 -0.7040 0.2820
vn -0.3993 0.8652 0.3034
vn -0.3792 -0.9252 -0.0136
vn -0.9987 0.0088 0.0504
vn -0.8134 -0.5176 -0.2653
vn -0.8225 -0.1627 -0.5449
vn -0.8336 0.2223 -0.5058
vn -0.5564 0.6991 -0.4491
vn -0.4819 -0.6923 -0.5371
vn -0.0368 -0.9972 -0.0644
vn -0.4411 0.2968 -0.8470
vn -0.0417 0.7991 -0.5998
vn -0.1615 0.4812 -0.8616
vn -0.1030 -0.9199 -0.3784
vn 0.0400 -0.1104 -0.9931
vn 0.0422 -0.4052 -0.9133
vn -0.0123 -0.8804 -0.4741
vn 0.2755 0.8911 -0.3606
vn 0.2119 -0.8782 -0.4287
vn 0.2467 -0.9383 -0.2423
vn 0.5855 -0.0578 -0.8086
vn 0.4203 -0.6701 -0.6118
vn 0.1510 -0.9880 0.0309
vn 0.5222 0.7354 -0.4318
vn 0.7087 -0.6006 -0.3702
vn 0.4893 0.8405 -0.2326
vn 0.9243 0.1715 -0.3408
vn 0.2769 -0.4312 0.8587
vn 0.5184 -0.8544 -0.0363
vn 0.4274 0.9012 0.0718
vn 0.9539 -0.2553 0.1578
vn 0.6935 0.6948 0.1903
vn 0.4159 -0.8854 0.2076
vn 0.6032 -0.6315 0.4872
vn 0.5420 0.7040 0.4590
vn 0.5417 0.4490 0.7106
vn -0.7892 0.5720 0.2234
vn 0.2536 -0.6342 0.7304
vn 0.1026 -0.8824 0.4591
vn 0.1180 0.6769 0.7265
vn -0.0186 0.2560 0.9665
vn -0.3569 0.6970 0.6219
vn -0.0476 -0.9740 0.2213
vn -0.2347 -0.2819 0.9303
vn -0.4347 0.5479 0.7148
vn -0.3853 0.2221 0.8957
vn -0.1823 0.8798 0.4390
vn -0.4945 -0.7248 0.4798
vn -0.1279 -0.9705 0.2045
vn -0.9301 0.3024 0.2083
vn -0.7620 -0.5709 0.3056
vn -0.2879 0.9573 -0.0279
vn -0.2171 -0.9740 0.0650
vn -0.9853 -0.1708 -0.0022
vn -0.3933 -0.9187 -0.0369
vn -0.7844 0.6200 0.0176
vn -0.9147 0.3659 -0.1717
vn -0.7213 -0.6326 -0.2821
vn -0.4299 -0.0944 -0.8979
vn -0.6187 0.7694 -0.1591
vn -0.5738 0.4437 -0.6884
vn 0.0266 0.9944 0.1021
vn -0.2918 -0.8818 -0.3706
vn -0.4212 -0.4973 -0.7585
vn -0.1611 0.8363 -0.5241
vn -0.1051 -0.6369 -0.7638
vn 0.1325 0.8214 -0.5548
vn 0.5963 -0.0418 -0.8017
vn 0.4229 -0.6252 -0.6560
vn 0.1157 -0.9925 -0.0406
vn 0.2419 -0.3231 0.9149
vn -0.7623 0.6141 0.2046
vn -0.4232 0.9048 0.0460
vn -0.4611 -0.2262 -0.8581
s off
f 22/59/39 23/60/39 24/61/39
f 22/59/40 24/62/40 25/63/40
f 23/64/41 26/65/41 24/61/41
f 24/66/42 26/65/42 27/67/42
f 26/68/43 28/69/43 29/70/43
f 27/71/44 29/72/44 30/73/44
f 27/71/45 30/74/45 31/75/45
f 30/76/46 32/77/46 33/78/46
f 34/79/47 35/80/47 29/70/47
f 29/81/48 35/80/48 36/82/48
f 36/83/49 32/77/49 30/73/49
f 35/84/50 37/85/50 36/82/50
f 38/86/51 32/77/51 39/87/51
f 32/88/52 37/85/52 40/89/52
f 41/90/53 28/69/53 42/91/53
f 35/84/54 43/92/54 37/93/54
f 37/94/55 43/92/55 44/95/55
f 42/96/56 45/97/56 41/98/56
f 45/99/57 46/100/57 41/98/57
f 46/101/58 47/102/58 43/103/58
f 47/104/59 48/105/59 43/103/59
f 46/101/60 45/97/60 49/106/60
f 39/107/61 50/108/61 51/109/61
f 47/104/62 49/110/62 52/111/62
f 45/99/63 42/112/63 49/106/63
f 50/113/64 53/114/64 51/109/64
f 42/96/65 28/69/65 54/115/65
f 48/116/66 52/117/66 55/118/66
f 48/116/67 53/114/67 50/119/67
f 49/120/68 42/112/68 56/121/68
f 51/122/69 57/123/69 58/124/69
f 59/125/70 60/126/70 55/118/70
f 60/127/71 61/128/71 55/118/71
f 54/129/72 62/130/72 56/121/72
f 63/131/73 61/128/73 57/132/73
f 64/133/74 65/134/74 60/135/74
f 65/136/75 66/137/75 61/138/75
f 65/136/76 67/139/76 66/140/76
f 68/141/77 67/139/77 65/142/77
f 69/143/78 70/144/78 68/145/78
f 71/146/79 66/137/79 72/147/79
f 58/148/80 57/123/80 73/149/80
f 70/150/81 22/151/81 67/152/81
f 70/150/82 74/153/82 23/154/82
f 70/150/83 23/60/83 22/155/83
f 72/156/84 73/157/84 57/132/84
f 75/158/85 22/151/85 25/63/85
f 76/159/86 75/160/86 25/63/86
f 72/156/87 76/161/87 73/149/87
f 26/68/88 74/153/88 28/162/88
f 76/159/89 33/163/89 73/149/89
f 73/164/90 33/163/90 38/165/90
f 31/166/91 24/62/91 27/67/91
f 76/159/92 31/167/92 33/78/92
f 58/148/93 38/168/93 39/87/93
f 27/71/94 26/65/94 29/70/94
f 31/166/95 30/74/95 33/78/95
f 29/81/96 28/69/96 34/169/96
f 30/76/97 29/72/97 36/82/97
f 50/113/98 43/92/98 48/170/98
f 33/171/99 32/77/99 38/165/99
f 34/79/100 28/69/100 41/98/100
f 32/88/101 36/172/101 37/93/101
f 34/79/102 41/173/102 35/174/102
f 39/107/103 32/77/103 40/89/103
f 40/175/104 37/85/104 44/95/104
f 41/90/105 46/100/105 35/174/105
f 35/84/106 46/100/106 43/103/106
f 64/133/107 56/176/107 62/177/107
f 40/175/108 44/178/108 50/119/108
f 39/107/109 40/179/109 50/119/109
f 46/101/110 49/110/110 47/180/110
f 47/104/111 52/117/111 48/170/111
f 52/181/112 49/110/112 56/121/112
f 39/107/113 51/182/113 58/124/113
f 48/116/114 55/183/114 53/184/114
f 52/181/115 56/176/115 59/185/115
f 52/181/116 59/186/116 55/118/116
f 42/96/117 54/187/117 56/121/117
f 53/188/118 55/183/118 63/189/118
f 51/122/119 53/114/119 63/189/119
f 59/125/120 64/190/120 60/135/120
f 63/131/121 55/183/121 61/138/121
f 69/143/122 54/187/122 74/191/122
f 51/122/123 63/192/123 57/132/123
f 60/127/124 65/134/124 61/138/124
f 57/193/125 61/128/125 71/194/125
f 62/195/126 68/196/126 64/197/126
f 64/133/127 68/196/127 65/142/127
f 61/198/128 66/137/128 71/194/128
f 75/158/129 67/139/129 22/155/129
f 62/195/130 69/199/130 68/145/130
f 68/141/131 70/144/131 67/152/131
f 54/129/132 28/69/132 74/191/132
f 57/193/133 71/200/133 72/147/133
f 72/156/134 66/137/134 75/201/134
f 69/143/135 74/153/135 70/202/135
f 72/156/136 75/160/136 76/203/136
f 23/64/137 74/153/137 26/204/137
f 31/166/138 25/205/138 24/61/138
f 76/159/139 25/205/139 31/75/139
f 58/148/140 73/157/140 38/165/140
f 50/113/141 44/178/141 43/103/141
f 64/133/142 59/186/142 56/121/142
f 69/143/143 62/130/143 54/115/143
f 75/158/144 66/137/144 67/152/144
o Icosphere.001
v -8.680023 0.295572 2.667996
v -9.507538 0.450241 2.966035
v -8.945572 0.669755 3.110911
v -8.741565 0.506804 3.639691
v -8.452726 0.330844 3.015271
v -9.360885 0.650993 3.580610
v -8.390598 -0.080918 3.501424
v -8.658488 -0.032056 2.606985
v -9.543598 -0.075845 2.830913
v -9.671887 -0.062126 3.413195
v -9.366533 -0.149898 3.796004
v -8.960290 -0.073732 3.918965
v -9.053680 -0.418885 3.223563
vt 0.000000 0.000000
vt 1.000000 0.000000
vt 1.000000 1.000000
vt 0.000000 0.000000
vt 1.000000 0.000000
vt 0.000000 0.000000
vt 1.000000 0.000000
vt 0.000000 0.000000
vt 1.000000 0.000000
vt 0.000000 0.000000
vt 1.000000 0.000000
vt 0.000000 0.000000
vt 1.000000 0.000000
vt 1.000000 1.000000
vt 0.000000 0.000000
vt 1.000000 1.000000
vt 1.000000 0.000000
vt 1.000000 1.000000
vt 0.000000 0.000000
vt 1.000000 0.000000
vt 0.000000 0.000000
vt 0.000000 0.000000
vt 1.000000 0.000000
vt 1.000000 1.000000
vt 0.000000 0.000000
vt 1.000000 1.000000
vt 1.000000 0.000000
vt 1.000000 0.000000
vt 0.000000 0.000000
vt 1.000000 1.000000
vt 1.000000 1.000000
vt 1.000000 1.000000
vt 1.000000 0.000000
vt 1.000000 1.000000
vn -0.1087 0.7263 -0.6788
vn 0.5706 0.8206 0.0327
vn 0.4699 0.7928 -0.3881
vn -0.3020 0.9251 -0.2301
vn 0.2017 0.9552 0.2165
vn 0.9350 -0.2026 -0.2911
vn 0.8190 0.1566 -0.5520
vn -0.3091 0.1544 -0.9384
vn -0.2490 0.2569 -0.9338
vn -0.9687 0.1220 -0.2163
vn -0.9205 0.3789 0.0959
vn -0.3229 0.2479 0.9134
vn 0.0138 0.4292 0.9031
vn 0.8535 0.4464 0.2690
vn -0.7492 0.1769 0.6382
vn 0.5847 0.1621 0.7949
vn -0.1057 -0.8105 -0.5762
vn -0.5192 -0.8495 -0.0944
vn -0.4553 -0.8754 0.1625
vn 0.5098 -0.8371 -0.1984
vn 0.0348 -0.8970 0.4406
vn 0.2796 -0.8744 0.3965
s off
f 77/206/145 78/207/145 79/208/145
f 80/209/146 81/210/146 79/208/146
f 81/211/147 77/212/147 79/208/147
f 78/213/148 82/214/148 79/208/148
f 82/215/149 80/216/149 79/208/149
f 83/217/150 84/218/150 81/219/150
f 84/220/151 77/212/151 81/219/151
f 84/220/152 78/207/152 77/221/152
f 84/220/153 85/222/153 78/223/153
f 85/224/154 86/225/154 78/223/154
f 86/226/155 82/214/155 78/223/155
f 87/227/156 88/228/156 82/229/156
f 88/230/157 80/216/157 82/229/157
f 83/217/158 81/210/158 80/231/158
f 86/226/159 87/232/159 82/229/159
f 88/230/160 83/233/160 80/231/160
f 89/234/161 85/222/161 84/235/161
f 89/234/162 86/225/162 85/236/162
f 89/234/163 87/232/163 86/237/163
f 83/217/164 89/238/164 84/235/164
f 87/227/165 89/238/165 88/239/165
f 89/234/166 83/233/166 88/239/166
o Sphere.001
v -7.008258 0.061151 3.178992
v -7.752159 0.327543 2.972532
v -7.370586 0.882403 2.358550
v -7.595091 -0.171038 3.703587
v -8.266367 0.775564 3.101030
v -7.103724 1.613132 2.086676
v -8.119523 0.154708 3.732074
v -8.432543 0.697384 3.770974
v -7.826988 -0.068883 4.546547
v -8.316149 0.870939 4.361934
v -8.108590 1.544966 3.061350
v -8.264357 1.489526 3.665770
v -7.634328 0.572293 5.035910
v -7.931000 1.498113 4.337919
v -7.492587 2.127542 3.335856
v -6.982578 1.601549 4.581439
v -6.493628 1.163733 4.965009
v -6.758667 1.242176 4.951784
v -6.930649 2.104580 3.495570
v -6.356954 1.764999 3.738493
v -6.714462 -0.117327 4.439227
v -6.104186 0.853296 4.442968
v -6.432832 1.490293 2.708946
v -6.083379 0.798998 3.199794
v -6.243554 0.349822 3.425128
v -6.678051 1.134971 2.285468
vt 0.000000 0.000000
vt 1.000000 0.000000
vt 1.000000 1.000000
vt 1.000000 0.000000
vt 1.000000 1.000000
vt 0.000000 0.000000
vt 1.000000 0.000000
vt 0.000000 0.000000
vt 1.000000 1.000000
vt 0.000000 0.000000
vt 1.000000 0.000000
vt 1.000000 1.000000
vt 0.000000 0.000000
vt 1.000000 0.000000
vt 1.000000 1.000000
vt 0.000000 0.000000
vt 1.000000 1.000000
vt 1.000000 0.000000
vt 0.000000 0.000000
vt 0.000000 0.000000
vt 1.000000 0.000000
vt 1.000000 0.000000
vt 1.000000 1.000000
vt 0.000000 0.000000
vt 1.000000 0.000000
vt 1.000000 1.000000
vt 0.000000 0.000000
vt 1.000000 0.000000
vt 1.000000 1.000000
vt 0.000000 0.000000
vt 1.000000 0.000000
vt 1.000000 1.000000
vt 1.000000 0.000000
vt 0.000000 0.000000
vt 1.000000 1.000000
vt 0.000000 0.000000
vt 1.000000 0.000000
vt 0.000000 0.000000
vt 1.000000 1.000000
vt 0.000000 0.000000
vt 1.000000 1.000000
vt 1.000000 1.000000
vt 1.000000 0.000000
vt 0.000000 0.000000
vt 1.000000 0.000000
vt 1.000000 1.000000
vt 0.000000 0.000000
vt 1.000000 0.000000
vt 1.000000 1.000000
vt 1.000000 0.000000
vt 1.000000 0.000000
vt 0.000000 0.000000
vt 1.000000 1.000000
vt 0.000000 0.000000
vt 1.000000 1.000000
vt 0.000000 0.000000
vt 0.000000 0.000000
vt 1.000000 0.000000
vt 1.000000 0.000000
vt 1.000000 0.000000
vt 1.000000 1.000000
vt 1.000000 0.000000
vt 1.000000 1.000000
vt 1.000000 1.000000
vt 0.000000 0.000000
vt 0.000000 0.000000
vt 1.000000 0.000000
vt 1.000000 1.000000
vt 1.000000 0.000000
vt 1.000000 1.000000
vn -0.0658 -0.7196 -0.6912
vn -0.1493 -0.8315 -0.5350
vn -0.5482 -0.4220 -0.7221
vn -0.6332 -0.0560 -0.7720
vn -0.8436 -0.4677 -0.2638
vn -0.8714 -0.3969 0.2882
vn -0.9557 0.1842 -0.2294
vn -0.9602 0.1749 -0.2178
vn -0.9670 0.2219 0.1253
vn -0.7340 -0.2587 0.6279
vn -0.7812 0.4944 0.3811
vn -0.4945 0.7387 -0.4581
vn -0.2106 0.8667 0.4522
vn -0.0091 0.1363 0.9906
vn 0.1350 0.9303 -0.3411
vn 0.4186 0.8163 0.3982
vn 0.5805 0.7440 -0.3308
vn 0.2643 -0.4048 0.8754
vn 0.8163 0.4775 0.3250
vn 0.4047 0.8757 -0.2635
vn 0.6131 -0.3881 0.6881
vn 0.9461 -0.3224 0.0299
vn 0.0491 -0.6153 0.7868
vn 0.4439 -0.6499 -0.6170
vn 0.0325 -0.3589 -0.9328
vn 0.1634 -0.6602 -0.7331
vn -0.0325 -0.9932 0.1114
vn -0.5288 -0.8476 -0.0428
vn -0.8488 -0.5016 0.1672
vn -0.6960 0.1061 -0.7101
vn -0.2588 0.6103 0.7487
vn -0.5638 0.3744 0.7362
vn -0.6593 0.7450 -0.1016
vn -0.5464 0.7959 0.2608
vn 0.9222 0.3513 -0.1617
vn -0.3105 0.5068 0.8042
vn -0.0812 0.9058 0.4158
vn 0.1940 0.7600 0.6202
vn 0.3083 0.8401 0.4462
vn 0.9628 0.2703 0.0043
vn -0.4965 -0.7631 -0.4138
vn 0.8372 -0.5270 0.1460
vn 0.8455 0.0500 -0.5316
vn 0.6180 -0.5174 -0.5920
vn 0.4057 -0.8871 -0.2202
vn 0.2136 -0.9591 -0.1856
vn 0.6745 0.3248 -0.6630
vn -0.6474 -0.6132 -0.4526
s off
f 90/240/167 91/241/167 92/242/167
f 90/240/168 93/243/168 91/244/168
f 91/245/169 94/246/169 92/242/169
f 92/247/170 94/246/170 95/248/170
f 94/249/171 96/250/171 97/251/171
f 97/252/172 98/253/172 99/254/172
f 100/255/173 94/246/173 101/256/173
f 94/249/174 97/257/174 101/256/174
f 101/258/175 97/257/175 99/254/175
f 98/259/176 102/260/176 99/254/176
f 101/258/177 99/261/177 103/262/177
f 95/263/178 100/264/178 104/265/178
f 104/266/179 103/267/179 105/268/179
f 102/269/180 106/270/180 107/271/180
f 104/266/181 108/272/181 95/248/181
f 105/273/182 106/270/182 108/274/182
f 108/275/183 109/276/183 95/248/183
f 106/277/184 102/260/184 110/278/184
f 109/279/185 106/270/185 111/280/185
f 95/263/186 109/276/186 112/281/186
f 106/277/187 110/282/187 111/280/187
f 113/283/188 111/284/188 114/285/188
f 102/269/189 98/253/189 110/278/189
f 115/286/190 114/287/190 90/288/190
f 115/286/191 92/289/191 95/248/191
f 115/286/192 90/290/192 92/242/192
f 110/291/193 98/253/193 93/292/193
f 93/293/194 98/253/194 96/294/194
f 96/295/195 98/253/195 97/251/195
f 94/249/196 100/264/196 95/248/196
f 107/296/197 105/297/197 103/262/197
f 102/269/198 103/267/198 99/254/198
f 100/255/199 101/298/199 104/265/199
f 101/258/200 103/267/200 104/265/200
f 113/283/201 112/299/201 109/300/201
f 102/269/202 107/301/202 103/262/202
f 104/266/203 105/297/203 108/274/203
f 105/273/204 107/301/204 106/302/204
f 108/275/205 106/270/205 109/300/205
f 109/279/206 111/284/206 113/303/206
f 91/245/207 93/243/207 96/294/207
f 111/304/208 110/282/208 114/285/208
f 112/305/209 113/306/209 115/307/209
f 113/283/210 114/287/210 115/307/210
f 110/291/211 90/290/211 114/285/211
f 110/291/212 93/243/212 90/288/212
f 115/286/213 95/308/213 112/281/213
f 91/245/214 96/250/214 94/309/214
